<svg width="2000" height="900" fill="none" xmlns="http://www.w3.org/2000/svg"><g clip-path="url(#homepage-desktop_650d9436__clip0_13540_227371)"><path d="M2000 0H0v900h2000V0z" fill="#F4F1EA"/><path d="M1160.85 400.44l483.24-189.64s-16.48-100.91-76.27-94.23c-58.01 6.48-57.13 70.58-102.77 108.37-56.75 46.98-73.75-29.61-127.24-1.2-57.7 30.65-43.18 99.43-176.96 176.71v-.01zM357.74 199.98l377.45 168.29s-33.42-19.86-60.31-50.9c-37.91-43.77-47.74-106.1-107.15-85.22-37.15 13.05-64.55-41.4-113.88-85.88-52.83-47.64-129.42-30.02-96.11 53.7v.01zM788.62 290.29l-147.83-87.17s-11.28-55.68 19.16-51.59c21.84 2.93 28.73 49.04 45.62 55.72 13.44 5.31 27.8-11.79 42.92 4.2 15.24 16.12-.66 46.63 40.12 78.84h.01zM920.58 517.3l176.11-60.32s-8.82-27.58-28.58-21.62c-18.66 5.63-23.52 35.56-49.36 29.82-17.01-3.78-36-1.55-48.7 11.82-13.83 14.56-17.67 26.94-49.47 40.31v-.01z" fill="#E9E4D7"/><path d="M802.54 531.21v209.76h99.43V556.58l-99.43-25.37zM802.54 531.21l-47.87 40.15v169.61h47.87V531.21z" fill="#EFCD6C"/><path d="M901.97 556.58v184.39M868.83 548.12v192.85M835.69 539.67v201.3M802.54 531.21v209.76" stroke="#E9E4D7" stroke-width="1.5" stroke-linecap="round" stroke-linejoin="round"/><path d="M901.97 556.58v184.39M868.83 548.12v192.85M835.69 539.67v201.3M802.54 531.21v209.76" stroke="#D8B345" stroke-width="1.5" stroke-linecap="round" stroke-linejoin="round"/><path d="M700.83 413.77V766h103V451.96l-103-38.19z" fill="#47BFCA"/><path d="M700.83 413.77l-109.97 92.82V766h109.97V413.77z" fill="#00486A"/><path d="M792.23 461.74v41.74l-14.08-4.01v-42.63l14.08 4.9zM762.16 451.19v43.6l-14.08-4.05-.21-44.5 14.29 4.95zM792.23 522.05v41.74l-14.06-2.85v-42.59l14.06 3.7zM731.94 506.17v45.42l-14.06-2.85v-46.18l14.06 3.61zM731.94 571.77v45.41l-14.05-1.76v-46.16l14.05 2.51zM762.16 577.13v43.53l-14.05-1.71v-44.34l14.05 2.52zM792.23 642.72v41.74l-14.02-.4v-42.58l14.02 1.24z" stroke="#00486A" stroke-width="1.5" stroke-linecap="round" stroke-linejoin="round"/><path d="M605.9 289.13v552.05h102.43V337.36L605.9 289.13z" fill="#F8D8CB"/><path d="M605.9 289.13l-118.23 59.52v492.53H605.9V289.13z" fill="#F78D8C"/><path d="M605.9 289.13v552.05M620.53 296.02v545.16M635.17 302.91v538.27M649.8 309.8v531.38M664.43 316.69v524.49M679.07 323.58v517.6M693.7 330.47v510.71M708.33 337.36v503.82" stroke="#F78D8C" stroke-width="1.5" stroke-linecap="round" stroke-linejoin="round"/><path d="M386.12 377.86c14.4-61.22 45.62-101.22 60.13-97.07 9.69 2.77 0 26.59 0 26.59s42.65-35.37 59.13-22.82c11.34 8.64-7.43 32.75-7.43 32.75s41.75-16.51 47.97 0c3.41 9.04-8.38 16.49-8.38 16.49s22.77 6.86 26.08 26.23l-177.5 17.83z" stroke="#12545B" stroke-width="1.5" stroke-linecap="round" stroke-linejoin="round"/><path d="M461.61 317.48v474.37h123.43V364.01l-123.43-46.53z" fill="#44B0DF"/><path d="M461.61 317.48l-102.06 55.54v418.83h102.06V317.48z" fill="#00486A"/><path d="M600.46 411.44l-15.42 6.53-123.43-39.04v-13.31l138.85 45.82z" fill="#003650"/><path d="M600.46 393.49l-124.07-43.31-14.78 8.61v6.83l138.85 45.82v-17.95z" fill="#3274A4"/><path d="M600.39 464.86l-15.35 6.26-123.43-31.56v-11.99l138.78 37.29z" fill="#003650"/><path d="M600.39 447.07l-124-36.02-14.78 9.57v6.95l138.78 37.29v-17.79z" fill="#3274A4"/><path d="M600.39 518.44l-15.35 6.13-123.43-24.99v-10.27l138.78 29.13z" fill="#003650"/><path d="M600.39 500.47l-124-28.41-14.78 10.44v6.81l138.78 29.13v-17.97z" fill="#3274A4"/><path d="M600.39 571.83l-15.35 4.94-123.43-17.23v-8.33l138.78 20.62z" fill="#003650"/><path d="M600.39 553.98l-124-20.98-14.78 11.23v6.98l138.78 20.62v-17.85z" fill="#3274A4"/><path d="M476.39 350.18v20.35l-30.42 15.64v-20.55l30.42-15.44zM476.39 411.14v20.4l-33.14 15.21v-20.31l33.14-15.3zM476.39 472.06v20.35l-32.55 13.47v-20.11l32.55-13.71zM476.39 533v20.41l-38.07 14.15v-20.39L476.39 533z" fill="#00486A"/><path d="M403.99 170.03c-4.09 1.02-9.01 4.28-5.97 6.91 3.35 2.9 13.07-.31 13.99-3.72.97-3.59-3.59-4.3-8.01-3.19h-.01zM397.172 220.579c.78 2.68 5.89 2.9 7.64 0 1.5-2.49-.54-5.93-3.83-5.55-1.96.23-4.72 2.42-3.8 5.55h-.01zM365.6 219.71s23.26-12.65 17.26-23.67c-8.66-15.91-56.96-1.73-56.96-1.73s27.09-29.45 14.65-45.2c-12.44-15.75-66.26 6.21-115.95 62.16 2.94-16.67-5.45-33.2-27.98-14.61-19.02 15.7-41.3 61-41.3 95.19 20.76 3.53 84.16 10.01 84.16 10.01l171.15-42.9c-10.18-32.48-45.03-39.26-45.03-39.26v.01z" fill="#12545B"/><path d="M271.92 198.62l-124.51 90.51v530.12l124.51-10.8V198.62zM271.92 198.62v609.83l148.76-13.26v-535.8l-148.76-60.77z" fill="#F4F1EA"/><path d="M271.92 806.59V198.62" stroke="#BA2C5F" stroke-width="1.5" stroke-linecap="round" stroke-linejoin="round"/><path d="M420.68 259.39l-148.76-60.77-124.51 90.51" stroke="#E9E4D7" stroke-width="1.5" stroke-linecap="round" stroke-linejoin="round"/><path d="M420.68 271.39l-148.76-60.11L147.41 300" stroke="#E9E4D7" stroke-width="1.5" stroke-linecap="round" stroke-linejoin="round"/><path d="M420.68 299.23l-148.76-55.24-124.51 84.39" stroke="#E9E4D7" stroke-width="1.5" stroke-linecap="round" stroke-linejoin="round"/><path d="M420.68 311.26l-148.76-54.48-124.51 82.73" stroke="#E9E4D7" stroke-width="1.5" stroke-linecap="round" stroke-linejoin="round"/><path d="M420.68 339.07l-148.76-49.71-124.51 78.27" stroke="#E9E4D7" stroke-width="1.5" stroke-linecap="round" stroke-linejoin="round"/><path d="M420.68 351.121l-148.76-48.83-124.51 76.74" stroke="#E9E4D7" stroke-width="1.5" stroke-linecap="round" stroke-linejoin="round"/><path d="M420.68 378.91l-148.76-44.18-124.51 72.15" stroke="#E9E4D7" stroke-width="1.5" stroke-linecap="round" stroke-linejoin="round"/><path d="M420.68 390.98L271.92 347.8l-124.51 70.74" stroke="#E9E4D7" stroke-width="1.5" stroke-linecap="round" stroke-linejoin="round"/><path d="M420.68 418.75L271.92 380.1l-124.51 66.03" stroke="#E9E4D7" stroke-width="1.5" stroke-linecap="round" stroke-linejoin="round"/><path d="M420.68 430.85l-148.76-37.54-124.51 64.75" stroke="#E9E4D7" stroke-width="1.5" stroke-linecap="round" stroke-linejoin="round"/><path d="M420.68 458.59l-148.76-33.12-124.51 59.91" stroke="#E9E4D7" stroke-width="1.5" stroke-linecap="round" stroke-linejoin="round"/><path d="M420.68 470.71l-148.76-31.9-124.51 58.76" stroke="#E9E4D7" stroke-width="1.5" stroke-linecap="round" stroke-linejoin="round"/><path d="M420.68 498.42l-148.76-27.57-124.51 53.78" stroke="#E9E4D7" stroke-width="1.5" stroke-linecap="round" stroke-linejoin="round"/><path d="M420.68 510.58l-148.76-26.26-124.51 52.76" stroke="#E9E4D7" stroke-width="1.5" stroke-linecap="round" stroke-linejoin="round"/><path d="M420.68 538.26l-148.76-22.04-124.51 47.66" stroke="#E9E4D7" stroke-width="1.5" stroke-linecap="round" stroke-linejoin="round"/><path d="M420.68 550.44l-148.76-20.61-124.51 46.77" stroke="#E9E4D7" stroke-width="1.5" stroke-linecap="round" stroke-linejoin="round"/><path d="M420.68 578.1l-148.76-16.51-124.51 41.54" stroke="#E9E4D7" stroke-width="1.5" stroke-linecap="round" stroke-linejoin="round"/><path d="M420.68 590.3l-148.76-14.96-124.51 40.77M420.68 617.94l-148.76-10.98-124.51 35.42" stroke="#E9E4D7" stroke-width="1.5" stroke-linecap="round" stroke-linejoin="round"/><path d="M420.68 630.17l-148.76-9.32-124.51 34.77M420.68 657.78l-148.76-5.45-124.51 29.3" stroke="#E9E4D7" stroke-width="1.5" stroke-linecap="round" stroke-linejoin="round"/><path d="M420.68 670.03l-148.76-3.68-124.51 28.79M420.68 697.66l-148.76.08-124.51 23.18M420.68 709.93l-148.76 1.97-124.51 22.79M420.68 740.27l-148.76 5.6-124.51 17.07M420.68 752.56l-148.76 7.61-124.51 16.8M420.68 782.87l-148.76 11.14-124.51 10.94M420.68 795.19l-148.76 13.26-124.51 10.8" stroke="#E9E4D7" stroke-width="1.5" stroke-linecap="round" stroke-linejoin="round"/><path d="M271.92 198.62v609.83l148.76-13.26v-535.8l-148.76-60.77zM271.92 198.62l-124.51 90.51v530.12l124.51-10.8V198.62z" stroke="#BA2C5F" stroke-width="1.5" stroke-linecap="round" stroke-linejoin="round"/><path d="M1408.54 755.93l-208.95-54.16h-484.7L248.5 809.56 0 830.19V1038l2000-127.13V802.21l-591.46-46.28z" fill="#9BD8BF"/><path d="M1082.48 760.65L0 910.67v119.09l1178.71-257.47-96.23-11.64z" fill="#F4F1EA"/><path d="M784.21 722.31l-326.42-39.32 1257.34 221.97 284.87 2.08v-34.98L784.21 722.31z" fill="#F4F1EA"/><path d="M989.81 530.49v181.32h87.45V506.6l-87.45 23.89zM1077.26 506.6l62.87 18.27v191.69l-62.87-4.75V506.6z" fill="#F4F1EA" stroke="#50C193" stroke-width="1.5" stroke-linecap="round" stroke-linejoin="round"/><path d="M989.81 554.17v157.64M1004.39 541.59v170.22M1018.96 557.07v154.74M1033.54 532.77v179.04M1048.11 570.38v141.43M1062.68 537.97v173.84M1077.26 567.42v144.39M1092.72 527.11v184.7M1108.18 550.08v161.73M1140.13 524.87v191.69" stroke="#E9E4D7" stroke-width="1.5" stroke-linecap="round" stroke-linejoin="round"/><path d="M989.81 530.49v181.32h87.45V506.6l-87.45 23.89zM1077.26 506.6l62.87 18.27v191.69l-62.87-4.75V506.6z" stroke="#50C193" stroke-width="1.5" stroke-linecap="round" stroke-linejoin="round"/><path d="M1209.6 506.23c-12.02-14.72-43.63-30.44-49.87-24.46-7.35 7.04 9.7 18.99 9.7 18.99s-34.58-16.01-42.52-6.78c-6.4 7.44 12.53 16.27 12.53 16.27s-31.83.17-32.38 24.93l102.55-28.95h-.01zM1109.97 505.329c3.03.85 5.67.83 5.78-.65.12-1.69-2.54-2.85-3.77-3.4-1.89-.84-3.97-1.69-4.92-.07-1.01 1.72.89 3.54 2.91 4.12v0z" stroke="#12545B" stroke-width="1.5" stroke-linecap="round" stroke-linejoin="round"/><path d="M1101.02 526.87v194.04h92.1V504.97l-92.1 21.9z" fill="#F8D8CB"/><path d="M1101.02 526.87l92.1-21.9M1101.02 532.659l92.1-21.909M1101.02 558.219l92.1-18.219M1101.02 564.029l92.1-18.25M1101.02 589.56l92.1-14.54M1101.02 595.41l92.1-14.6M1101.02 620.849l92.1-10.849M1101.02 626.73l92.1-10.95M1101.02 652.18l92.1-7.17M1101.02 658.09l92.1-7.3M1101.02 683.5l92.1-3.48M1101.02 689.449l92.1-3.65M1101.02 714.93l92.1.2M1101.02 720.91h92.1" stroke="#F78D8C" stroke-width="1.5" stroke-linecap="round" stroke-linejoin="round"/><path d="M1191.31 439.83v263.54h99.37v-295.7l-99.37 32.16z" fill="#47BFCA"/><path d="M1191.31 439.83v263.54M1224.43 429.11v274.26M1257.55 418.39v284.98M1290.68 407.67v295.7" stroke="#008A8A" stroke-width="1.5" stroke-linecap="round" stroke-linejoin="round"/><path d="M1290.68 325.5v365.78h109.02V278.75l-109.02 46.75zM1399.7 278.75l88.73 44.25v368.28h-88.73V278.75z" fill="#F4F1EA" stroke="#BA2C5F" stroke-width="1.5" stroke-linecap="round" stroke-linejoin="round"/><path d="M1290.68 325.5l109.02-46.75 88.73 44.25" stroke="#E9E4D7" stroke-width="1.5" stroke-linecap="round" stroke-linejoin="round"/><path d="M1290.68 338.11l108.98-45.13 88.77 42.72" stroke="#E9E4D7" stroke-width="1.5" stroke-linecap="round" stroke-linejoin="round"/><path d="M1290.68 350.72l108.93-43.52 88.82 41.2" stroke="#E9E4D7" stroke-width="1.5" stroke-linecap="round" stroke-linejoin="round"/><path d="M1290.68 363.34l108.88-41.91 88.87 39.67" stroke="#E9E4D7" stroke-width="1.5" stroke-linecap="round" stroke-linejoin="round"/><path d="M1290.68 375.95l108.84-40.3 88.91 38.15" stroke="#E9E4D7" stroke-width="1.5" stroke-linecap="round" stroke-linejoin="round"/><path d="M1290.68 388.56l108.79-38.68 88.96 36.62" stroke="#E9E4D7" stroke-width="1.5" stroke-linecap="round" stroke-linejoin="round"/><path d="M1290.68 401.18l108.75-37.08 89 35.1" stroke="#E9E4D7" stroke-width="1.5" stroke-linecap="round" stroke-linejoin="round"/><path d="M1290.68 413.79l108.7-35.46 89.05 33.56" stroke="#E9E4D7" stroke-width="1.5" stroke-linecap="round" stroke-linejoin="round"/><path d="M1290.68 426.4l108.65-33.85 89.1 32.04" stroke="#E9E4D7" stroke-width="1.5" stroke-linecap="round" stroke-linejoin="round"/><path d="M1290.68 439.02l108.61-32.24 89.14 30.51" stroke="#E9E4D7" stroke-width="1.5" stroke-linecap="round" stroke-linejoin="round"/><path d="M1290.68 451.63L1399.24 421l89.19 28.99" stroke="#E9E4D7" stroke-width="1.5" stroke-linecap="round" stroke-linejoin="round"/><path d="M1290.68 464.24l108.52-29.01 89.23 27.46" stroke="#E9E4D7" stroke-width="1.5" stroke-linecap="round" stroke-linejoin="round"/><path d="M1290.68 476.85l108.47-27.4 89.28 25.94" stroke="#E9E4D7" stroke-width="1.5" stroke-linecap="round" stroke-linejoin="round"/><path d="M1290.68 489.47l108.42-25.79 89.33 24.41" stroke="#E9E4D7" stroke-width="1.5" stroke-linecap="round" stroke-linejoin="round"/><path d="M1290.68 502.08l108.38-24.18 89.37 22.89" stroke="#E9E4D7" stroke-width="1.5" stroke-linecap="round" stroke-linejoin="round"/><path d="M1290.68 514.69l108.33-22.56 89.42 21.36" stroke="#E9E4D7" stroke-width="1.5" stroke-linecap="round" stroke-linejoin="round"/><path d="M1290.68 527.31l108.28-20.96 89.47 19.84" stroke="#E9E4D7" stroke-width="1.5" stroke-linecap="round" stroke-linejoin="round"/><path d="M1290.68 539.92l108.24-19.34 89.51 18.31" stroke="#E9E4D7" stroke-width="1.5" stroke-linecap="round" stroke-linejoin="round"/><path d="M1290.68 552.53l108.19-17.73 89.56 16.79" stroke="#E9E4D7" stroke-width="1.5" stroke-linecap="round" stroke-linejoin="round"/><path d="M1290.68 565.15l108.15-16.12 89.6 15.25" stroke="#E9E4D7" stroke-width="1.5" stroke-linecap="round" stroke-linejoin="round"/><path d="M1290.68 577.76l108.1-14.51 89.65 13.73M1290.68 590.37l108.05-12.89 89.7 12.2M1290.68 602.99l108.01-11.29 89.74 10.68M1290.68 615.6l107.96-9.67 89.79 9.15M1290.68 628.21l107.91-8.06 89.84 7.63M1290.68 640.82l107.87-6.44 89.88 6.1M1290.68 653.44l107.82-4.84 89.93 4.58M1290.68 666.05l107.78-3.22 89.97 3.05M1290.68 678.66l107.73-1.61 90.02 1.53M1290.68 691.28h197.75" stroke="#E9E4D7" stroke-width="1.5" stroke-linecap="round" stroke-linejoin="round"/><path d="M1290.68 325.5v365.78h109.02V278.75l-109.02 46.75zM1399.7 278.75l88.73 44.25v368.28h-88.73V278.75z" stroke="#BA2C5F" stroke-width="1.5" stroke-linecap="round" stroke-linejoin="round"/><path d="M1616.17 356.65c-17.98-51.72-90.63-101.89-104.33-89.26-10.11 9.33 10.64 30.62 10.64 30.62s-30.85-14.48-41.46-4.48c-10.62 10 19.61 19.7 19.61 19.7s-31.09-.4-43.35 26.77l158.89 16.65zM1472.54 263.02c-1.53 3.9-12.93-.3-10.83-5.31 1.97-4.71 12.33 1.49 10.83 5.31z" fill="#189E68"/><path d="M1442.17 342.25V712.8h103.7V307.02l-103.7 35.23z" fill="#E47B5B"/><path d="M1545.87 307.02l82.09 43.23V712.8h-82.09V307.02z" fill="#994D39"/><path d="M1465.32 403.2l-10.68 2.95v-54.44l10.68-3.38v54.87zM1531.53 385.23l-10.69 2.81v-57.97l10.69-3.39v58.55zM1465.32 485.66l-10.68 1.94v-54.39l10.68-2.65v55.1zM1531.53 560.7l-10.69 1.19v-58.01l10.69-1.69v58.51zM1465.32 650.4l-10.68.31v-54.36l10.68-.85v54.9zM1498.65 649.39l-10.69.33v-56.15l10.69-.9v56.72zM1498.65 479.2l-10.69 2.1v-56.04l10.69-2.76v56.7zM1498.65 564.29l-10.69 1.2v-56.14l10.69-1.77v56.71zM1586.87 216.91c-.37 6.65-18.21 2.08-18.78-2.59-.75-6.15 19.17-4.33 18.78 2.59zM1777.09 191.04c-15.72-3.15-22.43 17.07-20.75 35.15-36.24-47.12-96.95-70.19-101.71-50.18-4.9 20.6 16.9 34.02 16.9 34.02s-53.67-17.9-58.95 1.88c-4.06 15.21 22.57 23.83 22.57 23.83s-42.64 4.39-47.29 38.18l151.23-2.64 112.2 45.62c-9.72-47.69-46.38-120.28-74.21-125.85l.01-.01z" stroke="#12545B" stroke-width="1.5" stroke-linecap="round" stroke-linejoin="round"/><path d="M1579.51 272.64v496.49l151.51 11.96V217.8l-151.51 54.84z" fill="#EFCD6C"/><path d="M1588.43 269.43v500.41M1579.51 272.64v496.68M1624.08 256.52v516.13M1615.46 259.62v512.65M1659.73 243.61v531.85M1651.41 246.61v528.61M1695.37 230.71v547.57M1687.36 233.59v544.59M1731.02 217.8v563.29M1723.31 220.57v560.56" stroke="#D8B345" stroke-width="1.5" stroke-linecap="round" stroke-linejoin="round"/><path d="M1869.41 311.04l-138.39-93.24v563.29l138.39 11.16V311.04z" fill="#D8B345"/><path d="M922.81 717.95l-225.47-17.71s55.69-46.63 84.43-53.89c28.74-7.26 20.07 21.83 20.07 21.83s30.24-39.18 64.55-35.28c29.13 3.31 0 46.93 0 46.93s40.76-31.56 66.24-18.69c28.49 14.39-9.82 56.82-9.82 56.82v-.01zM843.09 612.55c2.39 2.45 7.89-.67 10.91-5.36 2.76-4.29 2.27-10.3-2.82-8.71-4.19 1.31-11.27 10.81-8.09 14.07z" fill="#008A8A"/><path d="M885.07 715s-16.01-23.43 3.42-27.12c19.44-3.69 35.56 12.21 35.56 12.21s-20.79-26.82 2.47-33.67c21.98-6.47 54.78 31.15 54.78 31.15s-26.03-50.22 13.76-46.97 100.05 80.8 100.05 80.8l-210.03-16.41-.01.01z" fill="#50C193"/><path d="M1253.93 622.09v121.75l-90.85-7.08V614.05l90.85 8.04z" fill="#00486A"/><path d="M1022.61 627.17v98.54l140.47 11.04V614.04l-140.47 13.12v.01z" fill="#44B0DF"/><path d="M1095.17 569.15L1199.15 596l54.78 26.09-90.85-8.04" fill="#00486A"/><path d="M1084.45 730.57v-76.43l-37.54 1.54v71.96M1022.61 627.17l72.56-58.02 67.91 44.9-140.47 13.12z" fill="#3274A4"/><path d="M1106.99 653.25v22.6l37.54-.22v-23.85l-37.54 1.47z" stroke="#F4F1EA" stroke-width="1.5" stroke-linecap="round" stroke-linejoin="round"/><path d="M1106.99 675.85v22.53l37.54 1.03v-23.78l-37.54.22zM1125.76 652.52v46.37" stroke="#F4F1EA" stroke-width="1.5" stroke-linecap="round" stroke-linejoin="round"/><path d="M1329.75 476.34c-3.56-4.81-6.93-17.2-7.39-31.65-.53-16.77-5.93-31.93-21.21-31.48-13.55.4-16.02 16.65-17.48 28.21 0 0-5.27-.99-5.27 4.52s2.68 9.65.33 17.13c-2.43 7.35-4.76 14.17-4.49 23.81 0 0-5.25-2.51-7.3 1.37s.38 10.95 3.73 15.05c0 0-5.09-.17-5.78 3.88-1.14 6.73 11.4 25.77 37.18 26 25.77.23 26.6-23.79 35.13-37.41 6.1-9.74 1.33-20.95-7.44-19.44l-.01.01z" fill="#189E68"/><path d="M1302.25 446.82v140.42M1314.46 463.09c-7.4 4.07-10.51 9.7-12.21 16.88M1317.2 493.51c-7.89 3.95-13.94 14.26-14.95 20.53M1290.59 459.14c5.83 2.06 11.66 11.28 11.66 18.4M1285.42 491.38c9.4 4.91 15.9 16.15 16.83 24.94" stroke="#006A6A" stroke-width="1.5" stroke-linecap="round" stroke-linejoin="round"/><path d="M1331.52 418.53c5.52-2.01-1.59-17.05-6.23-15.65-3.2.96-2.1 5.52-1.41 9.06.81 4.14 3.72 8.02 7.64 6.6v-.01z" fill="#189E68"/><path d="M1437.78 574.63c11.7-25.62-47.34-55.82-64.71-45.98-13.85 7.84 6.74 31.97 6.74 31.97s-31.47-25.45-48.65-20.08c-10.85 3.39-3.33 19.22 5.07 26.23 0 0-30.67-11.76-53.25-.93-30.08 14.43-25.52 39.64-25.52 39.64l162.67 1.99s6.77-9.01 17.65-32.83v-.01zM1351.36 528.54c4.48 2.83 8.16 0 7.57-3.65-.37-2.28-3.27-6.12-7.43-8.57-4.49-2.64-7.64 1.19-6.41 4.74.96 2.78 3.4 5.67 6.27 7.48z" fill="#12545B"/><path d="M1219.06 607.47c-13.46-13.8-11.81-33.22 2.85-34.04 13.18-.73 26.59 7.9 26.59 7.9s-18.23-31.98 5.86-30.63c28.09 1.58 68.75 44.87 68.75 44.87l-104.06 11.89.01.01z" stroke="#12545B" stroke-width="1.44" stroke-linecap="round" stroke-linejoin="round"/><path d="M1211.22 555.79c7.11 4.53 10.06-.15 5.07-4.77-4.05-3.74-6.7-7.62-9-6.05-2.58 1.76-.27 8.15 3.93 10.82v0zM1216.31 515.17c-2.24-3.38-3.14-8.31-6.55-7.67-2.85.54-3.97 5.58-1.82 10.18 1.76 3.77 5.76 7.35 8.54 5.71 2.29-1.35 2.29-4.5-.17-8.22z" stroke="#12545B" stroke-width="1.5" stroke-linecap="round" stroke-linejoin="round"/><path d="M1371.69 586.78l48.44 14.38v23.56l-48.44-12.91v-25.03z" fill="#BA2C5F"/><path d="M1197.65 617.03v122.38l174.04 13.65V602.6l-174.04 14.43z" fill="#FFBCA8"/><path d="M1197.65 604.36v20.17l174.04-12.72v-25.03l-174.04 17.58z" fill="#F78D8C"/><path d="M1220.62 674.58v26.96l48.15 1.33v-28.29c0-13.58-11.23-24.48-24.81-24.06-13 .4-23.34 11.05-23.34 24.06z" fill="#F4F1EA"/><path d="M1289.53 672.49v74.13l48.15 3.78v-77.91c0-13.58-11.23-24.48-24.81-24.06-13 .4-23.34 11.05-23.34 24.06z" fill="#3274A4"/><path d="M1298.5 672.63h29.33c0-8.27-6.84-14.91-15.11-14.66-7.92.24-14.22 6.73-14.22 14.66z" fill="#F4F1EA"/><path d="M1371.69 753.06l48.44 3.78V624.72l-48.44-12.91v141.25z" fill="#F78D8C"/><path d="M1212.16 689.42c-13.09-.99-8.41 16.09-3.62 23.76 0 0-30.27-22.42-39.27-13-7.2 7.52 14.88 23.11 14.88 23.11s-40.05-15.74-55.6 10.75l137.26 10.71s-35.88-53.98-53.65-55.32v-.01zM1249.68 709.6c3.78 4.28 9.17 7.3 12 3.6 3.18-4.16-9.95-20.51-15.17-17.54-4 2.27-.32 9.98 3.18 13.94h-.01zM1111.06 720.65c5.65 4.34 9.42 1.73 9.5 0 .1-2.01-2.92-4.12-7.13-4.61-4.21-.49-5.37 2.31-2.38 4.61h.01z" fill="#008A8A"/><path d="M1408.54 514.75v241.17l252.8 19.8V470.98l-252.8 43.78v-.01z" fill="#47BFCA"/><path d="M1507.38 649.15v114.52l55.21 4.33V647.66l-55.21 1.49z" fill="#00486A"/><path d="M1437.7 606.73v17.8l47.22-2.63v-18.85l-47.22 3.68z" stroke="#F4F1EA" stroke-width="1.5" stroke-linecap="round" stroke-linejoin="round"/><path d="M1437.7 553.28v53.45l47.22-3.68V547.1l-47.22 6.18zM1511.33 572.35v48.07l47.22-2.79v-49.92l-47.22 4.64zM1511.33 543.71v28.64l47.22-4.64v-30.04l-47.22 6.04zM1584.91 585.4v30.83l47.23-2.73v-32.02l-47.23 3.92z" stroke="#F4F1EA" stroke-width="1.5" stroke-linecap="round" stroke-linejoin="round"/><path d="M1584.91 534.36v51.04l47.23-3.92v-53.3l-47.23 6.18zM1584.96 718.53v20.51l47.18 2.37V720.1l-47.18-1.57z" stroke="#F4F1EA" stroke-width="1.5" stroke-linecap="round" stroke-linejoin="round"/><path d="M1584.96 646.83v71.7l47.18 1.57v-74.59l-47.18 1.32z" stroke="#F4F1EA" stroke-width="1.5" stroke-linecap="round" stroke-linejoin="round"/><path d="M1661.37 470.98l148.85 67.51v248.89l-148.85-11.65V470.98z" fill="#00486A"/><path d="M1437.78 713.48v17.78l47.16 2.65v-18.72l-47.16-1.71z" stroke="#F4F1EA" stroke-width="1.5" stroke-linecap="round" stroke-linejoin="round"/><path d="M1437.78 651.31v62.17l47.16 1.71v-65.54l-47.16 1.66z" stroke="#F4F1EA" stroke-width="1.5" stroke-linecap="round" stroke-linejoin="round"/><path d="M1395.59 637.18s9.15-7.19 10.65 5.35c1.5 12.55 3.72 25.38 10.03 37.56 7.06 13.64 6.33 25.27 3.45 35.54-3.79 13.54-15.32 21.75-30.87 21.75-14.48 0-23.3-12.46-25.79-18.48 0 0-7.41-4.35-8.49-10.12s3.25-7.95 3.25-7.95-2.83-10.62.75-13.05c3.58-2.43 7.16 2.17 7.16 2.17s4.33-12.88 5.41-23.08c1.08-10.2 4.83-35.17 16.51-36.97 6.11-.94 7.96 7.28 7.96 7.28h-.02zM1427.25 674.23c-2.24.82-5.08-1.51-6.66-4.35s-3.07-8.33.24-9.39c3.21-1.03 4.38 2.84 6.05 5.68 2.11 3.57 2.93 7.13.36 8.06h.01zM1359.51 668.32c-.36 2.2-1.97 6.38-4.86 5.9-2.89-.48-2.35-3.91-1.94-6.52.41-2.61 1.77-8.6 5.12-7.92 3.36.68 1.68 8.54 1.68 8.54z" fill="#008A8A"/><path d="M1388.94 654.07c-.75 12.04-1.29 86.27-1.29 108.6M1401.58 664.23c-7.82 3.12-12.76 15.67-13.4 25.41M1376.87 690.66c5.39 3.07 10.77 11.54 10.77 20.05M1403.41 692.29c-11.39 5.08-15.23 19.92-15.56 30.9" stroke="#12545B" stroke-width="1.5" stroke-linecap="round" stroke-linejoin="round"/><path d="M889.72 629.42c22.93 0 36.11-22.45 36.11-38.38 0-10.65-7.9-6.62-7.9-6.62s-3.3-5.08-3.55-13.05c-.29-9.02 3.45-16.89 1.06-24.66-2.4-7.77-13.15-13.05-22.74-1.54-9.6 11.51-8.16 25.33-10.07 29.26-1.92 3.93-9.79 9.02-11.03 17.46-1.46 9.9 1.54 15.06 1.54 15.06s-6.43-3.36-8.35 1.73 7.1 20.73 24.95 20.73l-.02.01z" fill="#189E68"/><path d="M898.16 553.81c-5.18 25.95-6.33 91.2-6.33 170.64M907.89 592.06c-4.46 2.75-11.93 10.39-14.71 19.99M907.31 564.81c-4.77 4.69-10.73 14.19-12.91 22.42M883.39 594.81c3.47 2.66 8.99 12.75 9.63 22" stroke="#006A6A" stroke-width="1.5" stroke-linecap="round" stroke-linejoin="round"/><path d="M913.54 630c-2.8 3.27-6.51 4.43-6.25 9.07.26 4.65 4.43 8.26 9.18 6.7 3.92-1.29 4.79-6.75 5.84-9.26 1.04-2.51 4.26-9.97 1.07-11.95-3.73-2.3-7.03 2.17-9.83 5.43l-.01.01z" fill="#189E68"/><path d="M918.39 632.63c-7.31 7.81-21.45 24.23-26.41 46.39" stroke="#006A6A" stroke-width="1.5" stroke-linecap="round" stroke-linejoin="round"/><path d="M886.78 529.81c1.95-2.58 3.91-7.29 1.42-8.8-2.49-1.51-6.3 1.52-8.13 4.85-1.83 3.33-2.14 7.63-.38 8.87 2.78 1.95 5.65-3.02 7.09-4.92z" fill="#189E68"/><path d="M967.98 659.59s-3.75-.13-4.26 2.86c-.84 4.96 8.4 18.99 27.39 19.16 18.99.17 23.11-17.51 25.88-27.56 2.26-8.21 3.36-14.28-2.02-14.96 0 0 .5-7.23-2.18-8.57-2.69-1.34-4.03 1.85-4.03 1.85s-2.48-7.89-2.69-15.96c-.31-12.06-4.37-23.53-15.63-23.19-11.26.34-12.13 15.54-13.28 23.86-1.68 12.27-6.89 18.32-6.55 30.42 0 0-3.87-1.85-5.38 1.01-1.51 2.86.28 8.07 2.74 11.09l.01-.01z" fill="#12545B"/><path d="M991.25 617.97v115.51M1000.24 629.96c-5.45 3-7.74 7.15-8.99 12.44M1002.26 652.36c-5.82 2.91-10.27 10.51-11.01 15.12M982.65 627.04c4.3 1.52 8.59 8.31 8.59 13.56M978.85 650.79c6.93 3.62 11.71 11.9 12.4 18.37" stroke="#008A8A" stroke-width="1.5" stroke-linecap="round" stroke-linejoin="round"/><path d="M1019.88 790.92l-2.58 5.7 5.33 22.17-9.28 33.24c-6.18-11.26-9.06-21.42-10.16-36.22-.51-6.87.18-17.08 1.34-26.86l10.58 3.33 4.75-1.37.02.01z" fill="#994D39"/><path d="M1031.62 740.94l-.8 25.84-10.93 24.14-4.75 1.37-10.58-3.33c1.5-12.62 3.79-24.51 5.28-27.53 2.65-5.35 21.79-20.49 21.79-20.49h-.01z" fill="#E5C054"/><path d="M1062.03 812.99c4.08 9.71 14.43 46.1 17.08 92.63h-29.3l-13.88-36.52-2.46-54.48 28.56-1.64v.01z" fill="#008A8A"/><path d="M1017.32 812.14c-3.89 7.2-11.37 27.32-14.29 51.96-3.17 26.68-1.67 41.52-1.67 41.52h26.5l11.24-46.32v-45l-21.78-2.17v.01z" fill="#008A8A"/><path d="M1027.87 905.62l8.54-35.22 13.39 35.22M1054.14 872.66l-36.06-4.42" stroke="#12545B" stroke-width="1.5" stroke-linecap="round" stroke-linejoin="round"/><path d="M1047.82 730.36v10.58h-16.2l3.77-13.47 12.43 2.89z" fill="#994D39"/><path d="M1044.87 698.31c10.74 3.17 9.18 11.85 9.43 17.67.25 5.82 2.87 16.43-8.17 16.49-11.04.06-20.32-5.22-20.98-16.49-.66-11.27 7.73-21.21 19.72-17.67z" fill="#994D39"/><path d="M1025.14 715.98c-.66-11.27 7.73-21.21 19.72-17.67 7.25 2.14 8.9 6.78 9.28 11.37-.91 2.42-2.26 4.32-3.97 5.35 0 0-2.12-2.74-3.61-1.17-1.88 1.99.17 6.13 1.99 6.75 0 0-2.67 10.91-12.16 10.29-5.36-.35-10.8-7.22-11.25-14.92z" fill="#0A0F1C"/><path d="M1039.2 712.12c-2.99 9.1-15.83 8.74-20.36.93-5.6-9.64 1.77-19.56 10.89-19.02 8.6.51 11.96 10.5 9.47 18.09z" fill="#0A0F1C"/><path d="M1047.82 740.94l15.02 40.64 3.88 32.91c-11.32 5-39.99 8.75-55.22-1.55l.98-50.36 16.56-14.62 2.57-7.02h16.21z" fill="#E5C054"/><path d="M1078.74 818.79c.66 3.64 9.72 41.85 10.6 45.61.88 3.75 2.87 8.39 3.53 16.79.66 8.39-.61 13.75-2.99 12.7-.42.8-1.41.8-1.96.35-.29.45-1.24-.69-1.49-2.75-2.2 1.88-2.2-12.04-2.39-15.82-.32-6.31-16.56-48.09-18.99-56.18-2.06-6.87-4.76-22.09-5.53-26.51l16.53-3.96c1.46 13.82 2.33 27.81 2.69 29.78v-.01z" fill="#994D39"/><path d="M1046.49 745.05l1.33-4.11s18.55 12 23.19 20.69c2.13 3.99 3.8 15.63 5.04 27.39l-16.53 3.96c-.14-.78-.21-1.23-.21-1.23l-12.81-46.68-.01-.02z" fill="#E5C054"/><path d="M1086.89 883.34c.02 4.02 0 8.78-.97 8.78-.88 0-1.55-4.88-1.55-10.47" stroke="#281E1E" stroke-width="1.5" stroke-linecap="round" stroke-linejoin="round"/><path d="M1089.02 885.03c0 2.36-.08 8.79-1.1 9.2-1.49.6-1.49-2.75-1.49-2.75M1091.01 886.88c0 3.6-.74 9.48-3.09 7.35M1093.04 883.99c.05 2.89.11 11.44-3.16 9.89" stroke="#281E1E" stroke-width="1.5" stroke-linecap="round" stroke-linejoin="round"/><path d="M1045.71 749.04c2.66-3.23 4.89-4.22 6.85-4.22s3.73 1.09 4.17 2.46c0 0-3.73.42-5.05 5.97 0 0-4.03-.71-5.96-4.22l-.01.01zM1026.48 745.12c-1.24 2.61-1.6 7.88-.69 10.13l-5.19 1.91c-.97-2.43-.75-6.33.18-8.12.99-1.9 3.72-3.77 5.69-3.92h.01z" fill="#158A5B" stroke="#12545B" stroke-width="1.5" stroke-linecap="round" stroke-linejoin="round"/><path d="M1052.87 751.73c6.51 7.18 8.18 43.86 3.99 51.6-5.46 10.08-35.47 9.64-40.58.71-5.14-8.97-7.53-42.56.19-51.47 7.05-8.14 28.37-9.7 36.41-.84h-.01z" fill="#158A5B"/><path d="M1011.95 785.25c7.84 3.76 34.54 4.42 46.88-.35M1064 815.54l-4.59-23.25M1011.5 812.94l.53-22.84M1101.55 821.2c2.94 2.15 5.34 6.97 5.63 11.42M1120.19 861.97c-2.94 3.38-4.5 9.72-4.5 14.6M993.7 827.33c-2.82 2.43-4.42 8.05-4.42 12.07M775.17 873.95c3.52 1.83 7.08 6.74 7.71 11.62M1145.89 821.94c-3.56 2.05-5.96 7.89-6.08 11.35M1424.03 866.59c-2.23 2.13-4.47 7.67-4.47 12.04" stroke="#12545B" stroke-width="1.5" stroke-linecap="round" stroke-linejoin="round"/><path d="M489.1 582.05c6.18-7.07 22.82-2.14 30.95 2.21-4.26-7.84-7.52-18.01-.19-23.08 16.06-11.1 50.13 26.07 50.13 26.07s-6.33-21.04 4.09-22c18.99-1.74 44.19 52.53 44.19 52.53l-127.67 2.49s-12.59-25.52-1.49-38.22h-.01z" fill="#008A8A"/><path d="M489.1 582.05c6.18-7.07 22.82-2.14 30.95 2.21-4.26-7.84-7.52-18.01-.19-23.08 16.06-11.1 50.13 26.07 50.13 26.07s-6.33-21.04 4.09-22c18.99-1.74 44.19 52.53 44.19 52.53l-127.67 2.49s-12.59-25.52-1.49-38.22h-.01z" fill="#008A8A"/><path d="M637.38 613.16c21.8-32.49 52.61-49.07 65.04-45.75 15.7 4.2-14.3 40.44-14.3 40.44s26.68-23.63 56.78-27.45c25.71-3.26 8.26 21.33-2.93 27.45 0 0 68.54-14.16 68.54 25.7l-173.13-20.4v.01zM782.83 591.25c1.82 2.2 6.11 2.42 9.67-1.51 3.79-4.2 1.62-8.47-2.02-8.06-4.4.49-10.98 5.54-7.64 9.57h-.01z" fill="#158A5B"/><path d="M598.34 609.34c-7.64-5.77-25.62-24.77-15.79-29.08 9.92-4.35 28.71 11.79 28.71 11.79s-16.84-30.4-1.77-30.3c17.74.12 44.6 43.44 49.28 54.91-18.45-2.25-60.43-7.33-60.43-7.33v.01zM609.54 529.22c3.38-3.43-3.21-9.32-7.81-17.48-4.17-7.39-11.26-6.07-9.9.44 1.92 9.19 13.35 21.46 17.71 17.04v0zM645.4 559.58c2.47 2.96 8.61 8.35 10.56 5.04 1.56-2.65-1.35-5.82-3.83-10.21-3.35-5.92-6.93-9.01-9.43-7.69-2.87 1.53-1.26 8.1 2.7 12.85v.01zM640.61 514.39c2.46-2.08-.32-11.42-2.44-14.49-3.32-4.8-8.72-2.71-6.49 6.1 1.2 4.75 6.08 10.79 8.93 8.39v0z" stroke="#12545B" stroke-width="1.5" stroke-linecap="round" stroke-linejoin="round"/><path d="M845.53 653.62l-325.21-25.07v157.94l325.21-27.22V653.62z" fill="#E47B5B"/><path d="M520.32 595.76l-6.99 16.43 6.99 16.36 325.21 25.07v-22.33l-325.21-35.53zM520.32 628.55l-42.78 14.29V790l42.78-3.51V628.55z" fill="#994D39"/><path d="M477.54 609.17v33.67l42.78-14.29v-32.79l-42.78 13.41z" fill="#713B2D"/><path d="M622.56 695.44v82.44l120.73-10.05v-71.36l-120.73-1.03z" fill="#EFCD6C"/><path d="M662.8 695.88v78.77M703.05 696.25v74.94" stroke="#12545B" stroke-width="1.5" stroke-linecap="round" stroke-linejoin="round"/><path d="M764.65 696.77v49.389l44.76-2.589v-46.33l-44.76-.47z" fill="#EFCD6C"/><path d="M764.6 721.45l44.77-1.08" stroke="#12545B" stroke-width="1.5" stroke-linecap="round" stroke-linejoin="round"/><path d="M553.92 663.34s-9.36-7.32-10.9 5.45c-1.53 12.77 2.89 26.56-6.13 39.16-9.02 12.6-10.21 24.68-7.66 35.24 2.55 10.55 16.77 22.13 31.58 22.13 14.81 0 23.83-12.68 26.39-18.81 0 0 7.58-4.43 8.68-10.3 1.11-5.87-3.32-8.09-3.32-8.09s2.89-10.81-.77-13.28c-3.66-2.47-7.32 2.21-7.32 2.21s-4.43-13.11-5.53-23.49c-1.11-10.38-3.49-21.37-12.17-26.98 0 0 .51-9.53-4.71-10.64-6.19-1.31-8.14 7.41-8.14 7.41v-.01zM538.24 652.06c-2.38-.49-4.92 2.26-6.1 5.36-1.18 3.1-1.89 8.84 1.62 9.42 3.4.57 4.01-3.5 5.3-6.61 1.61-3.91 1.92-7.61-.81-8.17h-.01zM601.01 715.42c.1 1.88 1.05 5.55 3.54 5.43 2.49-.13 2.36-3.06 2.27-5.3-.1-2.23-.67-7.41-3.58-7.15-2.9.26-2.23 7.02-2.23 7.02z" fill="#12545B"/><path d="M560.73 680.53c.77 12.26 1.32 94.33 1.32 117.06M571.96 695.26c-4.56 3.92-8.37 10.21-10.58 18.04M573.07 727.18c-6.4 6.88-10.11 17.01-11.33 24.17M536.54 727.69c9.27 5.55 21.44 18.95 24.85 26.56" stroke="#008A8A" stroke-width="1.5" stroke-linecap="round" stroke-linejoin="round"/><path d="M316.46 587.15v216.28l176.25-14.68v-182.2l-176.25-19.4z" fill="#FFD6C9"/><path d="M404.59 505.88l-88.13 81.27 176.25 19.4-88.12-100.67z" fill="#FAA489"/><path d="M205.74 623.22l110.72-36.07 88.13-81.27-142.28 58.93-56.57 58.41zM376.34 694.71v103.72l56.49-4.66v-98.51l-56.49-.55z" fill="#0075AA"/><path d="M369.05 612.27l-32.87-2.71v15.35l32.87 2.27v-14.91z" fill="#fff"/><path d="M336.18 624.91v46.33l32.87.86v-44.92l-32.87-2.27zM388.15 657.94v14.83l32.87.95V659.4l-32.87-1.46z" fill="#00486A"/><path d="M388.15 613.82v44.12l32.87 1.46v-42.91l-32.87-2.67zM440.13 618.12v28.07l32.86 1.77V620.8l-32.86-2.68z" fill="#fff"/><path d="M440.13 646.19v28l32.86 1.05v-27.28l-32.86-1.77z" fill="#00486A"/><path d="M316.46 638.81v-51.66l-110.72 36.07v82.9l110.72-23.03v-44.28z" fill="#E5C054"/><path d="M316.46 803.43V683.09l-110.72 23.03v107.29l110.72-9.98zM332.76 548.72l-25.21 23.9v-52.99l25.21-11.38v40.47z" fill="#00486A"/><path d="M323.04 503.38c-2.01-7.45-13.61-37.18 21.13-67.84 19.96-17.61 29.96-28.44 32.4-43.59" stroke="#00486A" stroke-width="1.5" stroke-linecap="round" stroke-linejoin="round"/><path d="M309.99 495.09c-3.26-12.61-4.44-32.12 9.42-50.6 14.15-18.86 34.73-28.86 39.68-46.77" stroke="#00486A" stroke-width="1.5" stroke-linecap="round" stroke-linejoin="round"/><path d="M258.09 808.69c21.58-39.85 86.12-112.32 97.77-85.68 7.33 16.77-29.47 56.51-29.47 56.51s30.83-22.46 40.57-11.02c5.33 6.26-1.34 21.6-11.75 31.69-13.46 1.15-97.12 8.49-97.12 8.49v.01zM307.83 717.55c1.23 3.4 6.54 2.54 10.24 0 5.14-3.54 8.83-8.67 6.43-11.84-1.67-2.2-6.43.08-9.42 2.34-2.32 1.75-8.5 6.03-7.25 9.49v.01z" fill="#50C193"/><path d="M204.05 683.97s9.99-7.85 11.62 5.84c1.63 13.69 4.06 27.69 10.94 40.98 7.7 14.88 6.91 27.57 3.77 38.77-4.14 14.77-16.71 23.72-33.68 23.72-15.8 0-25.42-13.6-28.14-20.17 0 0-8.08-4.74-9.26-11.04-1.18-6.3 3.54-8.67 3.54-8.67s-3.09-11.59.82-14.23c3.9-2.65 7.81 2.37 7.81 2.37s4.72-14.05 5.9-25.18c1.18-11.13 5.27-38.37 18.01-40.33 6.67-1.03 8.68 7.94 8.68 7.94h-.01zM238.59 724.4c-2.44.89-5.54-1.64-7.26-4.74-1.72-3.1-3.35-9.08.26-10.24 3.51-1.12 4.77 3.1 6.6 6.19 2.3 3.9 3.19 7.77.4 8.79zM164.68 717.95c-.39 2.4-2.15 6.96-5.3 6.44-3.15-.52-2.57-4.26-2.12-7.11.45-2.85 1.93-9.39 5.59-8.64s1.83 9.32 1.83 9.32v-.01z" fill="#008A8A"/><path d="M196.79 702.41c-.82 13.14-1.41 98.07-1.41 122.44M210.58 713.49c-8.53 3.41-13.92 17.1-14.62 27.73M183.62 742.33c5.88 3.35 11.75 12.59 11.75 21.88M212.57 744.1c-12.42 5.55-16.62 21.74-16.98 33.72" stroke="#12545B" stroke-width="1.64" stroke-linecap="round" stroke-linejoin="round"/><path d="M441.66 796.56c2.14-17.51 17.16-66 31.5-63.93 14.03 2.02 5.15 41.11 5.15 41.11s16.27-19.56 25.99-12.94c9.72 6.63 2.4 30.76 2.4 30.76l-65.04 5.01v-.01z" stroke="#12545B" stroke-width="1.5" stroke-linecap="round" stroke-linejoin="round"/><path d="M432.83 793.77l87.49-7.28-4.38 5.54-80.36 9.88-2.75-8.14z" fill="#9BD8BF"/><path d="M950.51 682.38s6.5 4.83 10.5 7.91c5.03 3.87 12.91 9.23 15.15 15.89 4.05 12.09 6.42 40.25 5.46 57.8-.94 17.2-12.56 44.17-12.56 44.17l-8.91-2.25s2.88-35.55 3.26-43.14c.38-7.59-4.73-37.1-4.73-37.1l-8.17-43.29v.01z" fill="#FAA489"/><path d="M950.51 682.38l9.44 50.6 20.7-6.41c-1.02-6.28-2.51-14.4-4.24-19.66-5.19-15.8-25.89-24.53-25.89-24.53h-.01z" fill="#44B0DF"/><path d="M868.75 837.77v-25.84l-11.05-12.17v25.47" stroke="#BA2C5F" stroke-width="1.5" stroke-linecap="round" stroke-linejoin="round"/><path d="M856.79 798.57l14.33 15.88" stroke="#BA2C5F" stroke-width="4" stroke-linecap="round" stroke-linejoin="round"/><path d="M849.63 815.65h-13.1l21.42 24.3a6.294 6.294 0 011.58 4.17v66.57h15.94v-66.68c0-1.47-.54-2.88-1.51-3.98l-19.84-22.37a6.013 6.013 0 00-4.49-2.02v.01z" fill="#FFBCA8"/><path d="M859.37 910.4v-66.69c0-1.46-.53-2.87-1.5-3.97l-21.5-24.39h-11.25c-3.31 0-6 2.69-6 6v89.05h40.26-.01z" fill="#FFBCA8"/><path d="M836.53 815.649l21.5 24.39c.97 1.1 1.5 2.51 1.5 3.97v66.69M842.12 910.35v-66.69c0-1.46-.53-2.87-1.5-3.97l-19.83-22.49M819.14 846.479l23 26.091M819.14 853.12l23 26.09" stroke="#BA2C5F" stroke-width="1.5" stroke-linecap="round" stroke-linejoin="round"/><path d="M826.58 845.38v-5.06l5.64 6.38v5.07l-5.64-6.39z" stroke="#BA2C5F" stroke-width="1.5" stroke-linecap="round" stroke-linejoin="round"/><path d="M937.93 787.55l19.67 117.18h22.46s8.98-51.89-7.59-70.01c0 0 9.16-70.73-12.26-87.05 0 0-42.42-19.83-22.28 39.88z" fill="#00486A"/><path d="M957.6 904.73l-15.97-98.74" stroke="#281E1E" stroke-width="1.5" stroke-linecap="round" stroke-linejoin="round"/><path d="M924.91 752.09c-8.48 4.92-14.02 18.25-19.28 41.51-5.9 26.11-6.6 43.9-6.61 51.34 0 7.81 3.05 59.79 3.05 59.79h24.4s9.74-41.2.76-60.1c0 0 26.8-71.72 28.82-80.08 2.02-8.36-31.14-12.46-31.14-12.46z" fill="#00486A"/><path d="M930.58 806.93c13.63-.62 31.29-4.03 31.29-4.03M941.73 806.62l-14.5 38.02s9.37 15.71-.76 60.1" stroke="#281E1E" stroke-width="1.5" stroke-linecap="round" stroke-linejoin="round"/><path d="M951.03 671.95c3.53-3.99 5.64-10.13 5.52-15.87-.13-6.26-4.52-11.19-11.93-12.29-7.41-1.11-13.71 1.77-14.57 9.87-.86 8.09-3.87 17.51-.29 21.63 1.17 1.34 2.62 2.21 4.23 2.71l.3 4.39h16.22l-.41-9.47c.32-.31.63-.63.93-.96v-.01z" fill="#FAA489"/><path d="M934.91 662.15l3.3-9.56-5.98.43c-.76 4.56-1.06 9.77-3.93 12.61-.46 4.02-.4 7.32 1.47 9.66 1.82 2.27 4.23 2.71 4.23 2.71l.92-15.84-.01-.01z" fill="#552C22"/><path d="M956.55 656.08c-.3-5.33-2.42-9-7.69-11.11-1.18-.47-1.95-.81-5.94-1.89-5.09-1.38-10.65-4.38-13.84.25-1.57 2.28-1.35 6.59.47 10.03.97 1.83 2.41 3.77 3.67 5.03 0 0-1.25 8.44 3.1 13.48 3.95 4.57 11.79 4.29 15 .45 4.08-4.88 5.52-11.06 5.23-16.24z" fill="#713B2D"/><path d="M932.6 659.61c1.18-2.64 3.74-2.79 4.38-1.47.79 1.65-1.3 5.25-4.64 6.08l.27-4.61h-.01z" fill="#FAA489"/><path d="M915.19 711.93l-7.21 51.38c15.64 7.46 56.46 7.46 66.08 1.32l-3.88-48.6-19.66-33.65H934.3l-19.1 29.55h-.01z" fill="#44B0DF"/><path d="M970.17 719.38l3.88 45.25" stroke="#00486A" stroke-width="1.5" stroke-linecap="round" stroke-linejoin="round"/><path d="M934.29 682.38c-8.42 5.46-23.35 13.58-26.37 21.37-1.13 2.92-3.09 10.89-5.1 19.72-3.36 14.73-6.85 31.86-6.85 31.86s-20.84 34.39-22.44 36.99c0 0-8.63 5.54-10.49 8.68-1.99 3.35-3.94 9.61-1.53 10.09 2.57.51 4.47-2 7.19-4.47 3.41-3.1 6.58-3.49 9.03-5.74 2.35-2.16 30.15-26.93 34.5-38.5 1.6-4.26 11.31-38.56 11.31-38.56l10.75-41.44z" fill="#FAA489"/><path d="M934.29 682.38c-9.18 3.97-22.82 11.44-26.94 21.2-1.61 3.83-3.47 10.24-5.29 18.23l20.72 8.17c1.21-3.33 14.36-14.78 14.36-14.78l-2.86-32.82h.01z" fill="#44B0DF"/><path d="M923.62 722.1l-12.12 42.87" stroke="#00486A" stroke-width="1.5" stroke-linecap="round" stroke-linejoin="round"/><path d="M868 804.21c-2.63 2.4-4.98 6.07-4.1 6.2 1.08.15 1.98-1.47 3.64-2.94 1.81-1.6 3.56-2.56 4.57-3.18" stroke="#281E1E" stroke-width="1.5" stroke-linecap="round" stroke-linejoin="round"/><path d="M866.06 803.13c-1.96 2.1-4.43 7.14-3.95 7.82.54.77 1.78-.54 1.78-.54M864.2 802.12c-1.7 2.32-4.57 9.29-2.09 8.83" stroke="#281E1E" stroke-width="1.5" stroke-linecap="round" stroke-linejoin="round"/><path d="M466.17 924.75c14.78-27.42 74.06-100.67 173.71-91.22 99.68 9.45 141.85 113.02 141.85 113.02l-315.56-21.8z" fill="#2CAD79"/><path d="M646.92 834.19l-16.35 102.76M599.45 834.19l18.81 100.39M645.37 937.12l50.84-86.48M547.79 849.65l54.27 84.48M505.22 877.88l50.6 51.98M737.88 882.31l-69.97 56.37" stroke="#BBE3D3" stroke-width="1.5" stroke-linecap="round" stroke-linejoin="round"/><path d="M769.04 817.83c4.35-8.75 4.54-22.03-2.92-24.49-7.83-2.58-13.34 6.41-19.42 14.68-3.7 5.05-11.54 12.87-6.35 20.34 6.57 9.48 21.44 4.04 28.69-10.54v.01zM691.75 810.98c-3.03 3.58-3.43 7.57-1.2 10.11 1.8 2.06 6.75 1.88 11.23-3.26 4.73-5.42 4.52-9.86 2.09-11.78-2.43-1.92-7.43-.61-12.12 4.93z" fill="#2CAD79"/><path d="M1180.3 799.99c8.88 3.24 16.4 2.67 17.29-3.96.83-6.13-7.42-10.59-14.03-13.96-4.03-2.05-10.59-6.78-14.92-1.91-5.48 6.17.74 15.85 11.65 19.83h.01zM1092.65 759.77c4.56 7.32 16.1 11.89 19.05 7.73 3.17-4.47-3.32-10.31-8.7-14.55-6.98-5.5-15.32-1.14-10.35 6.83v-.01zM1422.35 909.66c-25.7-59.05-79.38-121.29-156.55-116.43-66.43 4.19-111.08 55.66-130.47 111.9l287.02 4.53z" fill="#50C193"/><path d="M1232.23 799.79l38.86 107.49M1311.3 798.41l-52.16 75.81M1171.99 840.95l79.25 11.43M1373.04 836.31l-103.49 66.71M1149.8 872.61l113.52 13.18M1280.88 842.61l4.34-49.64M1323.78 868.24l12.22-59.56M1320.32 908.05l80.15-38.44" stroke="#BBE3D3" stroke-width="1.5" stroke-linecap="round" stroke-linejoin="round"/><path d="M1901.83 917.426c11.48-15.08 50.62-122.95 7.06-210.05-50-99.98-203.38-74.55-218.98 27.58-16.46 107.77 42.16 182.47 42.16 182.47h169.76z" fill="#008A8A"/><path d="M1797.58 643.726l13.69 273.7M1755.08 654.036l45.88 57.22M1877.78 668.696l-75.02 78.51M1692.79 721.796l78.89 11.64M1713.62 683.586l89.82 77.11M1843.08 650.136l-12.57 68.03M1913.82 718.166l-109.11 68M1687 756.716l117.43 44.26M1690.6 815.536l116.42 16.84M1897.06 688.346l-38.97 64.55M1806.38 819.556l120.71-47.76M1926.11 838.676L1808 851.756M1706.63 871.086l102.4 1.55M1916.33 882.946l-106.83-1.09" stroke="#BBE3D3" stroke-width="1.38" stroke-linecap="round" stroke-linejoin="round"/><path d="M1923.03 654.036c6.41-1.69 7.29-10.75 3.93-20.79-2.96-8.85-4.04-17.24-9.15-20.65-8.66-5.79-18.42 4.68-11.95 23.2 4.31 12.33 9.4 20.29 17.17 18.24z" fill="#008A8A"/><path d="M1444.07 950.24c-6.76-39.54-16-211.89 123.77-249.82 156.51-42.48 261.9 119.73 288.77 220.51l-412.54 29.32v-.01z" fill="#189E68"/><path d="M1632.73 936.83l-30.54-242.63M1624.95 875.02l83.1-157.75M1787.67 786.59L1630.02 915.3M1653.98 697.07l-39.86 91.94M1468.7 779.39l153.78 76.04M1502.94 735.06l113.88 75.4M1546.16 707.83l25.21 72.54M1552.9 821.02h-100.85" stroke="#BBE3D3" stroke-width="1.38" stroke-linecap="round" stroke-linejoin="round"/><path d="M1368.6 778.99c-4.99 10.37 8.06 15.94 16.37 25.15 8.46 9.37 17.24 24.61 27.05 15.77 10.66-9.6-2.49-28.49-14.5-37.99-7.37-5.83-24.41-12.32-28.92-2.93z" fill="#2CAD79"/><path d="M1626.93 890.78l-183.85-24.19M1697.22 858.88l49.16-115.04M1824.72 842.61l-175.98 106.45" stroke="#BBE3D3" stroke-width="1.38" stroke-linecap="round" stroke-linejoin="round"/><path d="M486.5 992.85s12.54-190.11-136.21-206.32c-185-20.17-276.47 206.32-276.47 206.32M481.22 853.86c4.98 7.26 15.23-.21 19.51-4.41 6.67-6.53 17.93-11.36 19.35-20.38 1.61-10.29-11.67-15-26.04-1.66-9.57 8.89-17.36 19.82-12.82 26.44v.01z" fill="#008A8A"/><path d="M283.92 993.19l37.57-207.85M279.59 993.19L141.58 883.43M187.53 838.23l104.53 109.93M435.58 826.91L298 915.3M383.96 793.91l-75.19 61.76M304.82 873.2l-52.24-73.31M379.14 863.17l30.55-57.18M216.87 817.2l18 70.81" stroke="#BBE3D3" stroke-width="1.52" stroke-linecap="round" stroke-linejoin="round"/><path d="M95.06 838.14c-3.11-2.23-3.3-10.14.31-18.92 4.57-11.11 13.11-24.31 22.34-19.68 8.6 4.3 4.03 21.17-1.63 28.47-7.55 9.74-16.01 13.73-21.02 10.14v-.01z" fill="#008A8A"/><path d="M286.01 981.63l181.28-104.86" stroke="#BBE3D3" stroke-width="1.52" stroke-linecap="round" stroke-linejoin="round"/></g><defs><clipPath id="homepage-desktop_650d9436__clip0_13540_227371"><path fill="#fff" d="M0 0h2000v900H0z"/></clipPath></defs></svg>