<svg width="97" height="96" viewBox="0 0 97 96" fill="none" xmlns="http://www.w3.org/2000/svg">
<g clip-path="url(#clip0_6060_24315)">
<path d="M19.0192 16.9326C14.3264 35.9041 15.5671 38.5 6.76411 52.0615C1.65277 59.9358 2.55262 87.9984 38.1274 91.5127C73.7023 95.027 88.6479 78.7239 91.1334 68.6657C98.2052 40.0833 76.5055 14.6406 56.4993 6.57337C43.5474 1.35072 22.2855 3.72794 19.0192 16.9326Z" fill="#F3F4F5"/>
<path d="M93 96C91.0703 96 89.5 94.4297 89.5 92.5C89.5 90.5703 91.0703 89 93 89C94.9297 89 96.5 90.5703 96.5 92.5C96.5 94.4297 94.9297 96 93 96ZM93 91.3333C92.356 91.3333 91.8333 91.856 91.8333 92.5C91.8333 93.144 92.356 93.6667 93 93.6667C93.644 93.6667 94.1667 93.144 94.1667 92.5C94.1667 91.856 93.644 91.3333 93 91.3333Z" fill="#D2D6DB"/>
<path d="M7.99609 3.95898L10.0275 1.27071L11.3716 2.28639L9.34023 4.97467L7.99609 3.95898Z" fill="#D2D6DB"/>
<path d="M2.1582 11.6914L4.18957 9.00313L5.53371 10.0188L3.50234 12.7071L2.1582 11.6914Z" fill="#D2D6DB"/>
<path d="M1 3.42969L2.01461 2.08474L4.70451 4.11396L3.6899 5.45891L1 3.42969Z" fill="#D2D6DB"/>
<path d="M82.1275 32.9992C81.8189 34.2834 80.8051 35.3983 79.0996 36.2873C77.3955 37.1755 75.0573 37.8057 72.2308 38.1379C66.5819 38.8019 59.0938 38.2629 51.1152 36.3456C43.1367 34.4283 36.2212 31.5059 31.4908 28.3478C29.1239 26.7676 27.3273 25.1437 26.2129 23.5782C25.0976 22.0113 24.7011 20.5575 25.0097 19.2733C25.3183 17.9891 26.3321 16.8741 28.0376 15.9852C29.7417 15.0969 32.0799 14.4667 34.9064 14.1345C40.5553 13.4706 48.0434 14.0096 56.022 15.9269C64.0006 17.8442 70.916 20.7665 75.6464 23.9246C78.0133 25.5049 79.8099 27.1287 80.9243 28.6943C82.0396 30.2611 82.4361 31.7149 82.1275 32.9992Z" stroke="#1D2126"/>
<path d="M61.5 79.5C61.5 79.5284 61.4841 79.6371 61.2632 79.8215C61.0472 80.0017 60.6985 80.1982 60.2019 80.3987C59.2132 80.7978 57.7528 81.1677 55.9115 81.482C52.2372 82.1093 47.1417 82.5 41.5 82.5C35.8583 82.5 30.7628 82.1093 27.0885 81.482C25.2472 81.1677 23.7868 80.7978 22.7981 80.3987C22.3015 80.1982 21.9528 80.0017 21.7368 79.8215C21.5159 79.6371 21.5 79.5284 21.5 79.5C21.5 79.4716 21.5159 79.3629 21.7368 79.1785C21.9528 78.9983 22.3015 78.8018 22.7981 78.6013C23.7868 78.2022 25.2472 77.8323 27.0885 77.518C30.7628 76.8907 35.8583 76.5 41.5 76.5C47.1417 76.5 52.2372 76.8907 55.9115 77.518C57.7528 77.8323 59.2132 78.2022 60.2019 78.6013C60.6985 78.8018 61.0472 78.9983 61.2632 79.1785C61.4841 79.3629 61.5 79.4716 61.5 79.5Z" fill="white" stroke="#1D2126"/>
<path d="M60.3615 32.4246C60.3345 32.5372 60.2075 32.7227 59.7677 32.8996C59.3425 33.0706 58.7248 33.1893 57.9398 33.2336C56.3765 33.3219 54.2662 33.1092 51.9884 32.5618C49.7106 32.0144 47.7342 31.245 46.3816 30.4561C45.7025 30.06 45.2061 29.6736 44.9051 29.328C44.5937 28.9706 44.5649 28.7476 44.592 28.635C44.619 28.5224 44.746 28.3368 45.1857 28.16C45.611 27.9889 46.2287 27.8703 47.0137 27.8259C48.577 27.7377 50.6873 27.9504 52.965 28.4978C55.2428 29.0451 57.2193 29.8145 58.5719 30.6035C59.251 30.9996 59.7473 31.386 60.0484 31.7316C60.3598 32.089 60.3886 32.312 60.3615 32.4246Z" fill="#FFD02F" stroke="#1D2126"/>
<mask id="path-9-inside-1_6060_24315" fill="white">
<ellipse cx="32.015" cy="22.7652" rx="1.45439" ry="0.437514" transform="rotate(13.5124 32.015 22.7652)"/>
</mask>
<path d="M32.4568 22.8714C32.5557 22.46 32.8764 22.3277 32.9051 22.3162C32.9628 22.2929 32.9692 22.3032 32.8863 22.3079C32.7339 22.3165 32.4694 22.2959 32.1465 22.2183L31.6791 24.163C32.1372 24.273 32.6026 24.3271 32.999 24.3047C33.1906 24.2939 33.4261 24.2623 33.6514 24.1717C33.8476 24.0928 34.2744 23.8676 34.4015 23.3387L32.4568 22.8714ZM32.1465 22.2183C31.8235 22.1407 31.5785 22.0389 31.4466 21.962C31.375 21.9202 31.3853 21.9139 31.4262 21.9608C31.4465 21.9841 31.6721 22.2476 31.5732 22.6591L29.6286 22.1917C29.5015 22.7207 29.7793 23.1151 29.9183 23.2746C30.0778 23.4577 30.2732 23.5929 30.4389 23.6895C30.7819 23.8896 31.2211 24.0529 31.6791 24.163L32.1465 22.2183ZM31.5732 22.6591C31.4743 23.0705 31.1536 23.2028 31.125 23.2143C31.0672 23.2375 31.0609 23.2272 31.1437 23.2225C31.2961 23.2139 31.5607 23.2345 31.8836 23.3121L32.3509 21.3675C31.8928 21.2574 31.4274 21.2033 31.031 21.2257C30.8394 21.2365 30.604 21.2681 30.3787 21.3587C30.1824 21.4377 29.7557 21.6628 29.6286 22.1917L31.5732 22.6591ZM31.8836 23.3121C32.2065 23.3898 32.4515 23.4916 32.5834 23.5685C32.6551 23.6103 32.6447 23.6166 32.6039 23.5697C32.5836 23.5464 32.358 23.2828 32.4568 22.8714L34.4015 23.3387C34.5286 22.8098 34.2507 22.4153 34.1118 22.2558C33.9522 22.0727 33.7568 21.9376 33.5911 21.8409C33.2482 21.6409 32.809 21.4776 32.3509 21.3675L31.8836 23.3121Z" fill="#1D2126" mask="url(#path-9-inside-1_6060_24315)"/>
<mask id="path-11-inside-2_6060_24315" fill="white">
<ellipse cx="74.015" cy="32.7652" rx="1.45439" ry="0.437514" transform="rotate(13.5124 74.015 32.7652)"/>
</mask>
<path d="M74.4568 32.8714C74.5557 32.46 74.8764 32.3277 74.9051 32.3162C74.9628 32.2929 74.9692 32.3032 74.8863 32.3079C74.7339 32.3165 74.4694 32.2959 74.1465 32.2183L73.6791 34.163C74.1372 34.273 74.6026 34.3271 74.999 34.3047C75.1906 34.2939 75.4261 34.2623 75.6514 34.1717C75.8476 34.0928 76.2744 33.8676 76.4015 33.3387L74.4568 32.8714ZM74.1465 32.2183C73.8235 32.1407 73.5785 32.0389 73.4466 31.962C73.375 31.9202 73.3853 31.9139 73.4262 31.9608C73.4465 31.9841 73.6721 32.2476 73.5732 32.6591L71.6286 32.1917C71.5015 32.7207 71.7793 33.1151 71.9183 33.2746C72.0778 33.4577 72.2732 33.5929 72.4389 33.6895C72.7819 33.8896 73.2211 34.0529 73.6791 34.163L74.1465 32.2183ZM73.5732 32.6591C73.4743 33.0705 73.1536 33.2028 73.125 33.2143C73.0672 33.2375 73.0609 33.2272 73.1437 33.2225C73.2961 33.2139 73.5607 33.2345 73.8836 33.3121L74.3509 31.3675C73.8928 31.2574 73.4274 31.2033 73.031 31.2257C72.8394 31.2365 72.604 31.2681 72.3787 31.3587C72.1824 31.4377 71.7557 31.6628 71.6286 32.1917L73.5732 32.6591ZM73.8836 33.3121C74.2065 33.3898 74.4515 33.4916 74.5834 33.5685C74.6551 33.6103 74.6447 33.6166 74.6039 33.5697C74.5836 33.5464 74.358 33.2828 74.4568 32.8714L76.4015 33.3387C76.5286 32.8098 76.2507 32.4153 76.1118 32.2558C75.9522 32.0727 75.7568 31.9376 75.5911 31.8409C75.2482 31.6409 74.809 31.4776 74.3509 31.3675L73.8836 33.3121Z" fill="#1D2126" mask="url(#path-11-inside-2_6060_24315)"/>
<mask id="path-13-inside-3_6060_24315" fill="white">
<ellipse cx="41.3245" cy="21.3502" rx="1.99452" ry="0.6" transform="rotate(13.5124 41.3245 21.3502)"/>
</mask>
<path d="M42.2915 21.5826C42.3371 21.3929 42.4391 21.2611 42.5236 21.1843C42.6017 21.1134 42.6677 21.0854 42.6837 21.0789C42.7103 21.0682 42.6741 21.0863 42.5403 21.0938C42.286 21.1082 41.8859 21.0737 41.418 20.9613L40.9507 22.9059C41.5537 23.0508 42.1547 23.1188 42.653 23.0907C42.8956 23.077 43.1736 23.0376 43.43 22.9345C43.6574 22.843 44.1038 22.6006 44.2361 22.0499L42.2915 21.5826ZM41.418 20.9613C40.95 20.8488 40.578 20.6978 40.3579 20.5694C40.2422 20.5019 40.2181 20.4693 40.237 20.4909C40.2483 20.504 40.2944 20.5589 40.3317 20.6575C40.3721 20.7643 40.4031 20.9281 40.3575 21.1178L38.4129 20.6505C38.2805 21.2012 38.5681 21.62 38.7291 21.8048C38.9106 22.0132 39.1404 22.1746 39.3502 22.297C39.7813 22.5484 40.3476 22.761 40.9507 22.9059L41.418 20.9613ZM40.3575 21.1178C40.3119 21.3075 40.2099 21.4393 40.1254 21.5161C40.0473 21.5871 39.9813 21.615 39.9653 21.6215C39.9387 21.6322 39.9749 21.6141 40.1087 21.6066C40.363 21.5922 40.7631 21.6267 41.231 21.7391L41.6984 19.7945C41.0953 19.6496 40.4943 19.5816 39.996 19.6097C39.7535 19.6234 39.4755 19.6628 39.219 19.7659C38.9917 19.8574 38.5452 20.0998 38.4129 20.6505L40.3575 21.1178ZM41.231 21.7391C41.699 21.8516 42.071 22.0027 42.2911 22.131C42.4068 22.1985 42.4309 22.2311 42.412 22.2095C42.4007 22.1964 42.3546 22.1415 42.3173 22.0429C42.2769 21.9361 42.2459 21.7723 42.2915 21.5826L44.2361 22.0499C44.3685 21.4992 44.0809 21.0804 43.9199 20.8956C43.7384 20.6872 43.5086 20.5258 43.2988 20.4034C42.8677 20.152 42.3014 19.9394 41.6984 19.7945L41.231 21.7391Z" fill="#1D2126" mask="url(#path-13-inside-3_6060_24315)"/>
<mask id="path-15-inside-4_6060_24315" fill="white">
<ellipse cx="66.5804" cy="27.0494" rx="1.99452" ry="0.6" transform="rotate(13.5124 66.5804 27.0494)"/>
</mask>
<path d="M67.5474 27.2818C67.5929 27.0921 67.695 26.9603 67.7795 26.8835C67.8575 26.8126 67.9235 26.7846 67.9396 26.7781C67.9662 26.7674 67.93 26.7855 67.7962 26.7931C67.5418 26.8074 67.1418 26.773 66.6738 26.6605L66.2065 28.6051C66.8096 28.7501 67.4106 28.818 67.9089 28.7899C68.1514 28.7762 68.4294 28.7368 68.6858 28.6337C68.9132 28.5422 69.3597 28.2998 69.492 27.7491L67.5474 27.2818ZM66.6738 26.6605C66.2059 26.548 65.8338 26.397 65.6138 26.2686C65.498 26.2011 65.474 26.1685 65.4928 26.1902C65.5042 26.2032 65.5503 26.2581 65.5876 26.3568C65.628 26.4636 65.659 26.6274 65.6134 26.817L63.6687 26.3497C63.5364 26.9005 63.8239 27.3193 63.9849 27.504C64.1665 27.7124 64.3963 27.8738 64.6061 27.9962C65.0372 28.2477 65.6034 28.4602 66.2065 28.6051L66.6738 26.6605ZM65.6134 26.817C65.5678 27.0067 65.4657 27.1386 65.3812 27.2154C65.3032 27.2863 65.2372 27.3143 65.2212 27.3207C65.1946 27.3314 65.2308 27.3133 65.3645 27.3058C65.6189 27.2914 66.0189 27.3259 66.4869 27.4384L66.9542 25.4937C66.3511 25.3488 65.7501 25.2808 65.2519 25.309C65.0093 25.3226 64.7313 25.362 64.4749 25.4652C64.2475 25.5566 63.8011 25.799 63.6687 26.3497L65.6134 26.817ZM66.4869 27.4384C66.9549 27.5508 67.3269 27.7019 67.5469 27.8302C67.6627 27.8977 67.6867 27.9303 67.6679 27.9087C67.6565 27.8956 67.6105 27.8407 67.5732 27.7421C67.5328 27.6353 67.5018 27.4715 67.5474 27.2818L69.492 27.7491C69.6243 27.1984 69.3368 26.7796 69.1758 26.5948C68.9942 26.3864 68.7645 26.225 68.5546 26.1026C68.1235 25.8512 67.5573 25.6386 66.9542 25.4937L66.4869 27.4384Z" fill="#1D2126" mask="url(#path-15-inside-4_6060_24315)"/>
<mask id="path-17-inside-5_6060_24315" fill="white">
<ellipse cx="54.5012" cy="22.5865" rx="3.01532" ry="0.907082" transform="rotate(13.5124 54.5012 22.5865)"/>
</mask>
<path d="M56.4607 23.0574C56.5444 22.709 56.8082 22.6266 56.747 22.6512C56.7148 22.6642 56.5982 22.697 56.3681 22.71C55.9211 22.7352 55.2649 22.6745 54.5229 22.4962L54.0556 24.4408C54.9327 24.6516 55.7899 24.7458 56.4808 24.7068C56.8196 24.6877 57.178 24.6336 57.4933 24.5068C57.7794 24.3917 58.2631 24.1167 58.4053 23.5247L56.4607 23.0574ZM54.5229 22.4962C53.7808 22.3179 53.1687 22.0737 52.782 21.8482C52.5829 21.7321 52.494 21.6499 52.4712 21.6237C52.4278 21.5739 52.6253 21.7672 52.5416 22.1156L50.597 21.6483C50.4547 22.2403 50.7606 22.705 50.9633 22.9376C51.1865 23.1937 51.4812 23.4048 51.7743 23.5758C52.372 23.9244 53.1784 24.23 54.0556 24.4408L54.5229 22.4962ZM52.5416 22.1156C52.4579 22.464 52.1941 22.5464 52.2553 22.5218C52.2875 22.5089 52.4042 22.4761 52.6342 22.4631C53.0812 22.4379 53.7374 22.4985 54.4794 22.6769L54.9468 20.7322C54.0696 20.5214 53.2124 20.4273 52.5215 20.4663C52.1827 20.4854 51.8243 20.5395 51.5091 20.6663C51.2229 20.7814 50.7392 21.0564 50.597 21.6483L52.5416 22.1156ZM54.4794 22.6769C55.2215 22.8552 55.8336 23.0993 56.2203 23.3249C56.4194 23.441 56.5084 23.5232 56.5312 23.5493C56.5745 23.5991 56.377 23.4058 56.4607 23.0574L58.4053 23.5247C58.5476 22.9328 58.2417 22.468 58.0391 22.2355C57.8159 21.9793 57.5212 21.7683 57.228 21.5973C56.6303 21.2486 55.8239 20.943 54.9468 20.7322L54.4794 22.6769Z" fill="#1D2126" mask="url(#path-17-inside-5_6060_24315)"/>
<path d="M43 13.8603C48.3333 9.66593 60.8 4.9553 68 19.668" stroke="#1D2126" stroke-linecap="round"/>
<path d="M44.5 29L21.5 79.5" stroke="#1D2126" stroke-linecap="round"/>
<path d="M60.3008 32.5L61.501 79.5" stroke="#1D2126" stroke-linecap="round"/>
<path d="M50.5 47.1897L44.2778 49V47.1897H42.5V42H50.5V47.1897Z" fill="#FFD02F"/>
<path d="M52.6452 54.9091L49.3211 57.0252L51.4824 58.2816L49.2209 62.172L53.1113 64.4336L57.1319 57.5173L52.6452 54.9091Z" fill="#FFD02F"/>
<path d="M41.6194 62.2431L38.1192 62.2271L38.0665 65.7629L33.567 65.6958L33.5 70.1953L41.4991 70.3145L41.6194 62.2431Z" fill="#FFD02F"/>
</g>
<defs>
<clipPath id="clip0_6060_24315">
<rect width="96" height="96" fill="white" transform="translate(0.5)"/>
</clipPath>
</defs>
</svg>
